<?xml version="1.0" encoding="UTF-8" standalone="no"?>
<!-- Created with Inkscape (http://www.inkscape.org/) -->

<svg
   width="120.053mm"
   height="120.0195mm"
   viewBox="0 0 120.053 120.0195"
   version="1.1"
   id="svg5"
   xml:space="preserve"
   inkscape:version="1.2.2 (b0a8486541, 2022-12-01)"
   sodipodi:docname="melo-chart.svg"
   inkscape:export-filename="melo-chart-test.svg"
   inkscape:export-xdpi="96"
   inkscape:export-ydpi="96"
   xmlns:inkscape="http://www.inkscape.org/namespaces/inkscape"
   xmlns:sodipodi="http://sodipodi.sourceforge.net/DTD/sodipodi-0.dtd"
   xmlns="http://www.w3.org/2000/svg"
   xmlns:svg="http://www.w3.org/2000/svg"><sodipodi:namedview
     id="namedview7"
     pagecolor="#ffffff"
     bordercolor="#000000"
     borderopacity="0.25"
     inkscape:showpageshadow="2"
     inkscape:pageopacity="0.0"
     inkscape:pagecheckerboard="0"
     inkscape:deskcolor="#d1d1d1"
     inkscape:document-units="mm"
     showgrid="false"
     inkscape:zoom="2.5272719"
     inkscape:cx="336.72673"
     inkscape:cy="856.45713"
     inkscape:window-width="2560"
     inkscape:window-height="1373"
     inkscape:window-x="1920"
     inkscape:window-y="0"
     inkscape:window-maximized="1"
     inkscape:current-layer="layer1" /><defs
     id="defs2" /><g
     inkscape:groupmode="layer"
     id="layer4"
     inkscape:label="Camada 2"
     style="display:none"
     transform="translate(-38.697385,-156.29888)"><rect
       style="display:inline;fill:#e6e6e6;stroke-width:0.586519"
       id="rect1121"
       width="120.0799"
       height="120.02774"
       x="38.645615"
       y="156.35326" /></g><g
     inkscape:groupmode="layer"
     id="layer5"
     inkscape:label="Camada 3"
     style="display:none"
     transform="translate(-38.697385,-156.29888)"><rect
       style="display:inline;fill:#800080;stroke-width:1.47239"
       id="rect1444"
       width="159.21373"
       height="11.388899"
       x="33.586376"
       y="144.89934" /></g><g
     inkscape:label="Camada 1"
     id="layer1"
     style="display:inline"
     inkscape:groupmode="layer"
     inkscape:export-filename="melo-chart-icon.svg"
     inkscape:export-xdpi="25.388685"
     inkscape:export-ydpi="25.388685"
     transform="translate(-38.697385,-156.29888)"><g
       id="layer2"
       inkscape:label="pitches"
       style="display:inline"><path
         id="rect341"
         style="display:inline;fill:#213b96;stroke-width:0.642098"
         d="m 58.697382,266.30881 -20,0.007 v 10.00249 h 20 z"
         inkscape:label="pitch-12"
         inkscape:export-filename="melo-chart-test.svg"
         inkscape:export-xdpi="96"
         inkscape:export-ydpi="96" /><path
         id="path777"
         style="display:inline;fill:#682899;stroke-width:0.642098"
         d="m 58.697382,256.3089 -20,0.008 v 9.99939 l 20,-0.007 z"
         inkscape:label="pitch-11" /><path
         id="path773"
         style="display:inline;fill:#992391;stroke-width:0.642098"
         d="m 58.697382,246.31003 -20,0.007 v 9.99939 l 20,-0.008 z"
         inkscape:label="pitch-10" /><path
         id="path769"
         style="display:inline;fill:#9c1c67;stroke-width:0.642098"
         d="m 58.697382,236.31012 -20,0.008 v 9.99938 l 20,-0.007 z"
         inkscape:label="pitch-9" /><path
         id="path765"
         style="display:inline;fill:#d91b23;stroke-width:0.642098"
         d="m 38.697382,226.3066 v 10.01128 l 20,-0.008 v -10.00145 z"
         inkscape:label="pitch-8" /><path
         id="path760"
         style="display:inline;fill:#f44d1a;stroke-width:0.642098"
         d="m 58.697382,216.30876 -20,0.0134 v 9.9844 l 20,0.002 z"
         inkscape:label="pitch-7" /><path
         id="path745"
         style="display:inline;fill:#fb7a16;stroke-width:0.642098"
         d="m 58.697382,206.30989 -20,0.0129 v 9.99939 l 20,-0.0134 z"
         inkscape:label="pitch-6" /><path
         id="path741"
         style="display:inline;fill:#fdb605;stroke-width:0.642098"
         d="m 58.697382,196.30998 -20,0.0129 v 9.99991 l 20,-0.0129 z"
         inkscape:label="pitch-5" /><path
         id="path737"
         style="display:inline;fill:#faef0f;stroke-width:0.642098"
         d="m 58.697382,186.31007 -20,0.014 v 9.99887 l 20,-0.0129 z"
         inkscape:label="pitch-4" /><path
         id="path733"
         style="display:inline;fill:#c4d21e;stroke-width:0.642098"
         d="m 58.697382,176.31017 -20,0.015 v 9.99888 l 20,-0.014 z"
         inkscape:label="pitch-3" /><path
         id="path728"
         style="display:inline;fill:#22a442;stroke-width:0.642098"
         d="m 58.697382,166.31078 -20,0.0145 v 9.9999 l 20,-0.015 z"
         inkscape:label="pitch-2" /><path
         id="path723"
         style="display:inline;fill:#0d9a9c;stroke-width:0.642098"
         d="m 38.697382,156.31862 v 10.00663 l 20,-0.0145 v -9.99216 z"
         inkscape:label="pitch-1" /></g><g
       id="g1386"
       inkscape:label="notes"
       transform="translate(0,-0.00455219)"><path
         id="path723-8"
         style="display:inline;fill:#0d9a9c;stroke-width:0.453881"
         d="m 138.75037,156.30345 v 4.99998 l 20,-0.007 v -4.99276 z"
         inkscape:label="note-5" /><path
         id="path745-9"
         style="display:inline;fill:#fb7a16;stroke-width:0.453753"
         d="m 138.73371,211.33045 -20.00001,0.006 v 4.99356 l 20.00001,-0.007 z"
         inkscape:label="note-4" /><path
         id="path737-2"
         style="display:inline;fill:#faef0f;stroke-width:0.45374"
         d="m 118.75244,191.32202 -20.000009,0.007 v 4.99301 l 20.000009,-0.006 z"
         inkscape:label="note-3" /><path
         id="path728-2"
         style="display:inline;fill:#22a442;stroke-width:0.453705"
         d="m 98.745032,171.28817 -20,0.007 v 4.99276 l 20,-0.007 z"
         inkscape:label="note-2" /><path
         id="path765-5"
         style="display:inline;fill:#d91b23;stroke-width:0.453776"
         d="m 58.710803,231.3169 v 5 l 20,-0.004 v -4.9951 z"
         inkscape:label="note-1" /></g><g
       id="g1607"
       inkscape:label="note-line-1"><path
         id="path765-2"
         style="display:inline;fill:#d91b23;stroke-width:0.321049"
         d="m 78.746875,226.26539 v 10.01128 l 5,-0.008 v -10.00145 z"
         inkscape:label="pitch-8" /><path
         id="path760-7"
         style="display:inline;fill:#f44d1a;stroke-width:0.321049"
         d="m 83.746875,216.26755 -5,0.0134 v 9.9844 l 5,0.002 z"
         inkscape:label="pitch-7" /><path
         id="path745-0"
         style="display:inline;fill:#fb7a16;stroke-width:0.321049"
         d="m 83.746875,206.26868 -5,0.0129 v 9.99939 l 5,-0.0134 z"
         inkscape:label="pitch-6" /><path
         id="path741-9"
         style="display:inline;fill:#fdb605;stroke-width:0.321049"
         d="m 83.746875,196.26877 -5,0.0129 v 9.99991 l 5,-0.0129 z"
         inkscape:label="pitch-5" /><path
         id="path737-3"
         style="display:inline;fill:#faef0f;stroke-width:0.321049"
         d="m 83.746875,186.26886 -5,0.014 v 9.99887 l 5,-0.0129 z"
         inkscape:label="pitch-4" /><path
         id="path733-6"
         style="display:inline;fill:#c4d21e;stroke-width:0.321049"
         d="m 83.746875,176.26896 -5,0.015 v 9.99888 l 5,-0.014 z"
         inkscape:label="pitch-3" /></g><g
       id="g1662"
       inkscape:label="note-line-2"><path
         id="path733-2"
         style="display:inline;fill:#c4d21e;stroke-width:0.321049"
         d="m 103.71021,181.265 -4.999998,0.015 v 9.99888 l 4.999998,-0.014 z"
         inkscape:label="pitch-3" /><path
         id="path728-6"
         style="display:inline;fill:#22a442;stroke-width:0.321049"
         d="m 103.71021,171.26561 -4.999998,0.0145 v 9.9999 l 4.999998,-0.015 z"
         inkscape:label="pitch-2" /></g><g
       id="g1709"
       inkscape:label="note-line-3"><path
         id="path741-7"
         style="display:inline;fill:#fdb605;stroke-width:0.321049"
         d="m 123.75844,201.30715 -5,0.0129 v 9.99991 l 5,-0.0129 z"
         inkscape:label="pitch-5" /><path
         id="path737-9"
         style="display:inline;fill:#faef0f;stroke-width:0.321049"
         d="m 123.75844,191.30724 -5,0.014 v 9.99887 l 5,-0.0129 z"
         inkscape:label="pitch-4" /></g><g
       id="g2311"
       inkscape:label="note-line-4"><path
         id="path745-97"
         style="display:inline;fill:#fb7a16;stroke-width:0.321049"
         d="m 143.73979,206.31503 -5,0.0129 v 9.99939 l 5,-0.0134 z"
         inkscape:label="pitch-6" /><path
         id="path741-3"
         style="display:inline;fill:#fdb605;stroke-width:0.321049"
         d="m 143.73979,196.31512 -5,0.0129 v 9.99991 l 5,-0.0129 z"
         inkscape:label="pitch-5" /><path
         id="path737-6"
         style="display:inline;fill:#faef0f;stroke-width:0.321049"
         d="m 143.73979,186.31521 -5,0.014 v 9.99887 l 5,-0.0129 z"
         inkscape:label="pitch-4" /><path
         id="path733-1"
         style="display:inline;fill:#c4d21e;stroke-width:0.321049"
         d="m 143.73979,176.31531 -5,0.015 v 9.99888 l 5,-0.014 z"
         inkscape:label="pitch-3" /><path
         id="path728-29"
         style="display:inline;fill:#22a442;stroke-width:0.321049"
         d="m 143.73979,166.31592 -5,0.0145 v 9.9999 l 5,-0.015 z"
         inkscape:label="pitch-2" /><path
         id="path723-3"
         style="display:inline;fill:#0d9a9c;stroke-width:0.321049"
         d="m 138.73979,156.32376 v 10.00663 l 5,-0.0145 v -9.99216 z"
         inkscape:label="pitch-1" /></g><g
       id="g287"
       transform="matrix(1.2585921,0,0,1.2585921,-74.457327,81.377687)"
       inkscape:label="note-figure"
       style="display:inline"><rect
         style="display:inline;fill:#333333;stroke-width:0.3368"
         id="rect649"
         width="3.1476548"
         height="79.021935"
         x="143.9222"
         y="59.579609"
         inkscape:label="rect649" /><path
         style="display:inline;fill:#333333;stroke-width:0.264583"
         d="m 144.01776,132.53223 -1.95752,-1.15679 -1.82289,-0.25084 -1.76666,-0.0935 -3.72018,0.16076 -2.9379,0.8378 -2.09174,0.93082 -2.30551,1.15455 -1.96159,1.55531 -2.34683,2.5484 -1.09474,1.765 -0.92464,1.74738 -0.67577,1.63739 -0.35759,1.39217 -0.14209,1.74571 0.18272,1.78293 0.33139,1.46001 0.6209,1.08323 1.64995,2.08566 2.37652,1.42479 2.77031,0.54489 4.22458,-0.0534 1.93731,-0.39165 1.34935,-0.41754 1.67413,-0.78705 2.61161,-1.5067 2.7879,-2.44602 1.73404,-2.12003 1.41921,-2.32642 0.99677,-2.40951 0.45948,-2.08967 0.001,-1.93663 z"
         id="path497"
         sodipodi:nodetypes="ccccccccccccccccccccccccccccccccc" /><path
         style="display:inline;fill:#333333;stroke-width:0.264583"
         d="m 165.07036,137.31958 1.43209,-1.88565 1.69529,-2.20985 1.65818,-2.55827 1.73363,-3.30674 1.9059,-4.46425 1.03103,-4.18638 0.49082,-1.77715 0.29964,-2.64881 0.17647,-2.59979 0.20446,-2.55671 -0.20371,-4.07962 -0.35151,-2.32588 -0.55498,-2.05189 -1.65354,-4.485766 -2.21407,-4.238673 -3.81988,-5.141195 -4.44596,-4.973847 -9.44194,-9.504568 -1.85832,-2.062403 -1.07254,-1.636666 -0.82695,-1.948641 -1.07506,-2.852738 -0.98581,-3.678925 -0.16129,-0.601903 -1.84724,0.542391 0.34668,20.519102 1.49256,2.296178 5.15202,1.424032 4.56649,2.157802 3.47894,2.455875 3.26642,2.948022 3.28505,3.879267 2.49753,4.09026 1.5505,3.679876 1.45068,5.22745 0.22399,3.48736 0.0158,2.78457 -0.0933,2.36989 -0.36377,1.80716 -0.5164,3.20036 -0.58877,1.80303 -0.47983,1.62518 -0.56375,1.29706 -0.81454,1.87785 -0.62791,1.40105 -0.97794,1.58071 -1.71609,2.88443 -1.20736,1.58617 z"
         id="path595"
         sodipodi:nodetypes="cccccccccccccccccccccccccccccccccccccccccccccccccc" /></g></g><g
     inkscape:groupmode="layer"
     id="layer6"
     inkscape:label="Camada 4"
     style="display:inline"
     transform="translate(-38.697385,-156.29888)"><text
       xml:space="preserve"
       style="font-size:23.6995px;display:inline;fill:#ececec;stroke-width:1.97495"
       x="297.67062"
       y="82.84079"
       id="text950"
       transform="scale(0.56742126,1.7623591)"><tspan
         sodipodi:role="line"
         id="tspan948"
         style="fill:#ff0000;stroke-width:1.97495"
         x="297.67062"
         y="82.84079">GAY?</tspan></text></g></svg>
